<?xml version="1.0" encoding="UTF-8"?>
<svg id="Layer_1" data-name="Layer 1" xmlns="http://www.w3.org/2000/svg" viewBox="0 0 199.12 123.8">
  <defs>
    <style>
      .cls-1 {
        fill: none;
        stroke: #00629e;
        stroke-miterlimit: 10;
        stroke-width: 1.04px;
      }
    </style>
  </defs>
  <path class="cls-1" d="M18.81,48.26C7.99,44.47,.52,38.35,.52,24.76,.52,123.8,99.56,99.04,99.56,123.8c0-26.02-61.23-8.31-80.75-75.53Z"/>
  <path class="cls-1" d="M12.9,0c0,19.73,2.21,35.52,5.91,48.26,28.62,10.02,80.75,3.67,80.75,75.53C99.56,0,12.9,61.9,12.9,0Z"/>
  <path class="cls-1" d="M180.31,48.26c-19.52,67.23-80.75,49.52-80.75,75.53,0-24.76,99.04,0,99.04-99.04,0,13.59-7.47,19.71-18.29,23.5Z"/>
  <path class="cls-1" d="M180.31,48.26c3.7-12.75,5.91-28.53,5.91-48.26,0,61.9-86.66,0-86.66,123.8,0-71.86,52.13-65.51,80.75-75.53Z"/>
</svg>