<?xml version="1.0" encoding="UTF-8"?>
<svg id="Layer_2" data-name="Layer 2" xmlns="http://www.w3.org/2000/svg" viewBox="0 0 201.74 126.09">
  <defs>
    <style>
      .cls-1 {
        fill: #006199;
      }
    </style>
  </defs>
  <g id="Layer_2-2" data-name="Layer 2">
    <g id="Layer_27" data-name="Layer 27">
      <g>
        <path class="cls-1" d="M18.63,49.16C7.6,45.3,0,39.06,0,25.22,0,126.09,100.87,100.87,100.87,126.09c0-26.5-62.36-8.46-82.24-76.93Z"/>
        <path class="cls-1" d="M12.61,0c0,20.1,2.25,36.17,6.02,49.16,29.15,10.2,82.24,3.74,82.24,76.93,0-126.09-88.26-63.05-88.26-126.09Z"/>
        <path class="cls-1" d="M18.63,49.16c19.88,68.47,82.24,50.43,82.24,76.93,0-73.19-53.1-66.73-82.24-76.93Z"/>
        <path class="cls-1" d="M183.11,49.16c-19.88,68.47-82.24,50.43-82.24,76.93,0-25.22,100.87,0,100.87-100.87,0,13.84-7.6,20.08-18.63,23.94Z"/>
        <path class="cls-1" d="M183.11,49.16c3.77-12.98,6.02-29.06,6.02-49.16,0,63.04-88.26,0-88.26,126.09,0-73.19,53.1-66.73,82.24-76.93Z"/>
        <path class="cls-1" d="M183.11,49.16c-29.15,10.2-82.24,3.74-82.24,76.93,0-26.5,62.36-8.46,82.24-76.93Z"/>
      </g>
    </g>
  </g>
</svg>